# xmcd
#
# Track frame offsets: 
#        150
#        15468
#        34716
#        51967
#        70667
#        89875
#        106371
#        121045
#
# Disc length: 1775 seconds
#
# Revision: 1
# Processed by: cddbd v1.5.2PL0 Copyright (c) Steve Scherf et al.
# Submitted via: ExactAudioCopyFreeDBPlugin 1.0
#
DISCID=6206ed08
DTITLE=Various Artist - Blues ile Birlikte Hayata
DYEAR=2013
DGENRE=Blues
TTITLE0=Elif ÇAĞLAR - Eğri Eğri
TTITLE1=Elif ÇAĞLAR - Gurbet
TTITLE2=Elif ÇAĞLAR - Bluestanbul
TTITLE3=Katherine DAVIS - What is It Baby That You Got
TTITLE4=Elif ÇAĞLAR - Çirozname
TTITLE5=Jimmy BURNS - Come On In
TTITLE6=Jimmy BURNS - It Used To Be
TTITLE7=Katherine DAVIS and Jimmy BURNS - Abidik Gubidik
EXTD=
EXTT0=
EXTT1=
EXTT2=
EXTT3=
EXTT4=
EXTT5=
EXTT6=
EXTT7=
PLAYORDER=
